<svg xmlns="http://www.w3.org/2000/svg" xmlns:xlink="http://www.w3.org/1999/xlink" width="1270" height="552.586" viewBox="0 0 1270 552.586">
  <defs>
    <linearGradient id="linear-gradient" x1="0.5" x2="0.5" y2="1" gradientUnits="objectBoundingBox">
      <stop offset="0" stop-color="#7800da"/>
      <stop offset="0.473" stop-color="#e63589"/>
      <stop offset="1" stop-color="#fe0307"/>
    </linearGradient>
    <linearGradient id="linear-gradient-2" x1="0.5" x2="0.5" y2="1" gradientUnits="objectBoundingBox">
      <stop offset="0" stop-color="#ffbf08"/>
      <stop offset="1" stop-color="#fa3f00"/>
    </linearGradient>
  </defs>
  <g id="Group_171604" data-name="Group 171604" transform="translate(-365 -723.496)">
    <path id="Path_1006" data-name="Path 1006" d="M27.281,29.1V72.7q0,12.756,1.565,16.061a11.425,11.425,0,0,0,5.566,5.276q4,1.971,14.669,1.971V100.3h-79.9V96.013q10.9,0,14.785-2.029a11.843,11.843,0,0,0,5.45-5.276q1.565-3.247,1.565-16V-29.342q0-12.756-1.565-16.061a11.454,11.454,0,0,0-5.508-5.276q-3.943-1.971-14.727-1.971v-4.291H37.717q33.861,0,48.588,12.06t14.727,30.15q0,15.307-9.509,26.207T65.316,26.319Q54.068,29.1,27.281,29.1Zm0-77V20.057q3.827.232,5.8.232,14.147,0,21.8-8.407t7.653-26.033q0-17.51-7.653-25.628T32.035-47.9ZM171.305,28.639V72.7q0,12.756,1.565,16.061a11.454,11.454,0,0,0,5.508,5.276q3.943,1.971,14.727,1.971V100.3H112.629V96.013q10.9,0,14.785-2.029a11.844,11.844,0,0,0,5.45-5.276q1.565-3.247,1.565-16V-29.342q0-12.756-1.565-16.061a11.454,11.454,0,0,0-5.508-5.276q-3.943-1.971-14.727-1.971v-4.291h73.056q28.527,0,41.746,3.943A42.054,42.054,0,0,1,249-38.445a39.045,39.045,0,0,1,8.349,24.874q0,17.394-12.524,28.759-8,7.19-22.381,10.784l37.8,53.227Q267.67,89.519,270.8,92.07a19.643,19.643,0,0,0,11.016,3.943V100.3H232.3L181.626,28.639Zm0-77.115V20.405h6.61q16.119,0,24.12-2.957A24.029,24.029,0,0,0,214.617,6.78Q219.2-.932,219.2-13.34q0-17.974-8.407-26.555t-27.077-8.581ZM366.7,96.013V100.3H284.484V96.013H289.7q6.842,0,11.016-2.435a10.561,10.561,0,0,0,4.638-5.566q1.276-2.783,1.276-14.611V-30.038q0-12.06-1.276-15.075a11.6,11.6,0,0,0-5.16-5.276q-3.885-2.261-10.495-2.261h-5.218v-4.291H366.7v4.291h-5.218q-6.842,0-11.016,2.435a11.088,11.088,0,0,0-4.754,5.566q-1.276,2.783-1.276,14.611V73.4q0,12.06,1.334,15.075a11.96,11.96,0,0,0,5.218,5.276q3.885,2.261,10.495,2.261ZM711.093,28.639V72.7q0,12.756,1.565,16.061a11.454,11.454,0,0,0,5.508,5.276q3.943,1.971,14.727,1.971V100.3H652.416V96.013q10.9,0,14.785-2.029a11.844,11.844,0,0,0,5.45-5.276q1.565-3.247,1.565-16V-29.342q0-12.756-1.565-16.061a11.454,11.454,0,0,0-5.508-5.276q-3.943-1.971-14.727-1.971v-4.291h73.056Q754-56.941,767.218-53a42.054,42.054,0,0,1,21.569,14.553,39.044,39.044,0,0,1,8.349,24.874q0,17.394-12.524,28.759-8,7.19-22.381,10.784l37.8,53.227q7.422,10.321,10.553,12.872A19.643,19.643,0,0,0,821.6,96.013V100.3H772.089L721.413,28.639Zm0-77.115V20.405h6.61q16.119,0,24.12-2.957A24.029,24.029,0,0,0,754.4,6.78q4.58-7.711,4.581-20.119,0-17.974-8.407-26.555T723.5-48.476Zm195.4,144.489V100.3H824.271V96.013h5.218q6.842,0,11.016-2.435a10.562,10.562,0,0,0,4.638-5.566q1.276-2.783,1.276-14.611V-30.038q0-12.06-1.276-15.075a11.6,11.6,0,0,0-5.16-5.276q-3.885-2.261-10.495-2.261h-5.218v-4.291h82.217v4.291H901.27q-6.842,0-11.016,2.435a11.088,11.088,0,0,0-4.754,5.566q-1.276,2.783-1.276,14.611V73.4q0,12.06,1.334,15.075a11.96,11.96,0,0,0,5.218,5.276q3.885,2.261,10.495,2.261ZM1061.762-56.941v42.558h-4.175q-3.711-14.727-8.233-21.163a31.7,31.7,0,0,0-12.408-10.263q-4.407-2.087-15.423-2.087h-11.712V73.4q0,12.06,1.334,15.075a11.96,11.96,0,0,0,5.218,5.276q3.885,2.261,10.61,2.261h5.218V100.3H949.858V96.013h5.218q6.842,0,11.016-2.435a11.088,11.088,0,0,0,4.754-5.566q1.276-2.783,1.276-14.611V-47.9H960.759q-15.887,0-23.076,6.726-10.089,9.393-12.756,26.787H920.52V-56.941Zm177.422,0v4.291q-7.769,1.044-11.944,4.523-5.8,4.87-18.322,26.555l-34.093,56.937V73.4q0,12.176,1.276,15.133a11.777,11.777,0,0,0,5.044,5.218q3.769,2.261,10.031,2.261h8.813V100.3h-88.247V96.013h8.233q6.958,0,11.016-2.435a11.088,11.088,0,0,0,4.754-5.566q1.276-2.783,1.276-14.611V41.858l-36.992-67.374Q1089.013-45.461,1084.49-49t-12.06-3.653v-4.291h75.375v4.291h-3.363q-6.842,0-9.567,1.971t-2.725,4.175q0,4.175,9.277,20.989l28.411,52.067,28.295-47.428q10.553-17.394,10.552-23.076a6.176,6.176,0,0,0-3.015-5.218q-3.943-2.9-14.5-3.479v-4.291Z" transform="translate(395.816 969.367)" fill="#3781c2"/>
    <g id="Group_171598" data-name="Group 171598" transform="translate(-14713 -17570.998)">
      <path id="Subtraction_3" data-name="Subtraction 3" d="M131.867,289.537a95.318,95.318,0,0,1-34.14-5.973,75.329,75.329,0,0,1-46.288-50.706,100.984,100.984,0,0,1-2.778-39.567,141.067,141.067,0,0,1,12.2-42.413A176.438,176.438,0,0,1,87.3,109.835c-16.278,19.543-26.534,42.334-28.877,64.176-2.366,22.059,3.548,41.681,16.653,55.252,11.881,12.3,28.535,18.806,48.162,18.805,28.64,0,59.193-13.646,83.826-37.435,20.729-20.018,34.561-44.7,38.948-69.487s-1.2-46.728-15.723-61.771c-11.88-12.3-28.533-18.8-48.16-18.8-28.346,0-58.664,13.417-83.179,36.81l.236-.232.707-.685a190.142,190.142,0,0,1,25.7-20.849A174.047,174.047,0,0,1,152.9,60.526a151.606,151.606,0,0,1,27.786-9.173,125.086,125.086,0,0,1,27.124-3.094,95.332,95.332,0,0,1,34.14,5.973,75.91,75.91,0,0,1,27.779,18.2A74.721,74.721,0,0,1,281.8,88.99a81.568,81.568,0,0,1,7.309,19.217,96.661,96.661,0,0,1,2.671,21.2,117.291,117.291,0,0,1-1.846,22.5,139.993,139.993,0,0,1-6.243,23.121,161.237,161.237,0,0,1-10.519,23.064,184.166,184.166,0,0,1-33.386,43.241,190.127,190.127,0,0,1-25.7,20.848,174.041,174.041,0,0,1-27.311,15.091,151.61,151.61,0,0,1-27.786,9.173A125.1,125.1,0,0,1,131.867,289.537Z" transform="translate(15448.276 18401.893)" fill="url(#linear-gradient)"/>
      <path id="Subtraction_2" data-name="Subtraction 2" d="M75.766,215.634h-.008c-1,0-2.015-.027-3.02-.079a59.909,59.909,0,0,1-29.987-10.061,75.149,75.149,0,0,1-12.759-10.629A91.147,91.147,0,0,1,19.111,181.1,108.74,108.74,0,0,1,10.4,164.656a125.208,125.208,0,0,1-6.249-18.679A146.47,146.47,0,0,1,8.225,63a117.4,117.4,0,0,1,17.813-32.93A93,93,0,0,1,37.833,17.5a77.035,77.035,0,0,1,13.3-9.462A60.834,60.834,0,0,1,81,0c1,0,2.023.027,3.029.079a58.263,58.263,0,0,1,17.726,3.766c-31.566,13.528-54.356,52.8-56.71,97.719-1.3,24.842,3.784,49.36,14.32,69.039,10.4,19.427,25.567,33.223,42.7,38.848A60.118,60.118,0,0,1,75.766,215.634Z" transform="translate(15617.164 18423.9) rotate(43)" fill="url(#linear-gradient-2)"/>
    </g>
    <path id="Subtraction_4" data-name="Subtraction 4" d="M-17412.359-17797.416c-2.641,0-5.32-.107-7.965-.316a47.242,47.242,0,0,1-24.574-9.455,41.852,41.852,0,0,1-8.889-9.121,33.4,33.4,0,0,1-5.2-11.074,33.746,33.746,0,0,1-.479-14.277,37.213,37.213,0,0,1,5.084-13.129,35.923,35.923,0,0,1,9.307-10.035,32.22,32.22,0,0,1,12.574-5.611,31.588,31.588,0,0,1,6.336-.645,32.154,32.154,0,0,1,21.381,8.26,33.526,33.526,0,0,1,7.326,9.342,34.644,34.644,0,0,1,3.766,11.938c.535,4.148-.139,8.516-.787,12.74-.283,1.824-.6,3.891-.795,5.885l.852,1.068c1.7-2.172,3.492-4.342,5.225-6.439l.049-.059.025-.033a145.966,145.966,0,0,0,11.07-14.617c14.344-22.7,21.91-48.336,28.432-72.652,3.986-14.875,7.973-29.826,11-41.189a97.763,97.763,0,0,0,29.24,4.271,124.854,124.854,0,0,0,27.121-3.1c4.178-.93,8.406-2.078,12.568-3.41-7.529,23.605-14.895,42.748-23.18,60.238a284.58,284.58,0,0,1-23.467,41.258,197.212,197.212,0,0,1-14.623,18.563,170.879,170.879,0,0,1-17.158,16.715,121.113,121.113,0,0,1-14.559,10.576,100.843,100.843,0,0,1-15.508,7.813,91.85,91.85,0,0,1-16.537,4.84A93.645,93.645,0,0,1-17412.359-17797.416Zm94.354-196.623a83.489,83.489,0,0,1-10.531-.656c11.342-42.617,21.592-81.045,32.15-119.793,7.949-29.18,15.271-52.84,23.043-74.459a544.625,544.625,0,0,1,31.148-71.467c3.768-7.111,7.389-13.447,11.072-19.369,4.143-6.66,8.244-12.621,12.541-18.223a159.984,159.984,0,0,1,31.363-31.422,108.477,108.477,0,0,1,13.1-8.428,94.36,94.36,0,0,1,13.764-6.131,88.591,88.591,0,0,1,14.451-3.746,90.555,90.555,0,0,1,15.158-1.27,98.185,98.185,0,0,1,10.723.6,44.094,44.094,0,0,1,24.889,11.344,37.073,37.073,0,0,1,12.107,22.834,34.805,34.805,0,0,1-6.77,24.66,35.092,35.092,0,0,1-21.67,13.723,28.645,28.645,0,0,1-5.338.5h-.008a32.179,32.179,0,0,1-19.977-7.219,33.173,33.173,0,0,1-7.326-8.18,31.777,31.777,0,0,1-4.256-10.48c-.988-4.727-.744-9.684-.484-14.93v-.01l.006-.094c.117-2.393.238-4.869.238-7.369-1.326,1.535-2.719,3.041-4.064,4.5l-.01.014a93.317,93.317,0,0,0-9.055,10.873c-15.434,22.867-23.846,48.832-29.449,68.9-9.273,33.227-18.471,66.641-27.365,98.955-11.215,40.746-22.811,82.881-34.486,124.387a130.31,130.31,0,0,1-32.117,16.311A102.475,102.475,0,0,1-17318.006-17994.039Z" transform="translate(18176.523 19073)" stroke="rgba(0,0,0,0)" stroke-miterlimit="10" stroke-width="1"/>
    <path id="Path_1018" data-name="Path 1018" d="M-541.856,0h4.872V-36.064h11.648V-40.04H-553.5v3.976h11.648Zm23.184,0h24.36V-3.976H-513.8v-14.5h14.9v-3.976h-14.9V-36.064h18.48V-40.04h-23.352Zm47.88.5c8.96,0,15.344-4.536,16.744-13.776h-4.536c-1.008,6.5-5.544,9.8-12.1,9.8-8.624,0-13.776-6.16-13.776-16.352v-.448c0-10.08,5.544-16.52,13.832-16.52,6.832,0,10.36,3.136,11.368,9.24h4.816c-.84-8.68-7.9-13.1-16.24-13.1-10.864,0-18.816,8.568-18.816,20.44v.448C-489.5-7.448-482.384.5-470.792.5Zm24.136-.5h4.872V-17.808h21.056V0h4.872V-40.04h-4.872V-21.9h-21.056V-40.04h-4.872Zm40.88,0h4.648V-34.328L-380.912,0h5.6V-40.04h-4.648v33.1l-19.488-33.1h-6.328Zm58.408-3.528c-8.344,0-14.784-6.608-14.784-16.3v-.448c0-9.52,5.376-16.352,14.672-16.352,9.24,0,14.5,7.28,14.5,16.24v.448C-332.976-10.248-338.464-3.528-347.368-3.528Zm0,4.032c11.648,0,19.432-9.072,19.432-20.384v-.448c0-11.256-7.784-20.216-19.544-20.216s-19.712,8.96-19.712,20.328v.448C-367.192-8.568-359.184.5-347.368.5Zm27.552-.5h23.184V-3.976h-18.312V-40.04h-4.872Zm46.144-3.528c-8.344,0-14.784-6.608-14.784-16.3v-.448c0-9.52,5.376-16.352,14.672-16.352,9.24,0,14.5,7.28,14.5,16.24v.448C-259.28-10.248-264.768-3.528-273.672-3.528Zm0,4.032c11.648,0,19.432-9.072,19.432-20.384v-.448c0-11.256-7.784-20.216-19.544-20.216S-293.5-31.584-293.5-20.216v.448C-293.5-8.568-285.488.5-273.672.5ZM-228.7.5c10.248,0,17.36-6.16,17.36-17.752v-2.968h-16.464v4.032h11.7c-.168,7.112-3.92,12.768-12.6,12.768-9.408,0-14.336-6.5-14.336-16.408v-.448c0-9.8,5.264-16.52,14.448-16.52,5.824,0,10.192,2.464,11.312,8.848h4.872c-1.232-9.016-8.344-12.712-16.3-12.712-11.48,0-19.376,8.736-19.376,20.44v.448C-248.08-8.064-241.024.5-228.7.5Zm25.816-.5h4.872V-40.04h-4.872Zm15.232,0h24.36V-3.976h-19.488v-14.5h14.9v-3.976h-14.9V-36.064h18.48V-40.04h-23.352Zm44.632.5c7.952,0,13.832-5.1,13.832-11.816,0-7.56-4.7-10.248-13.608-11.648-8.176-1.232-9.632-3.248-9.632-7.168,0-3.752,2.856-6.5,8.344-6.5,5.544,0,8.456,2.072,9.408,7.112h4.368c-.784-7.112-5.768-11.032-13.776-11.032-7.56,0-12.88,4.7-12.88,10.864,0,7.112,4.984,9.744,13.384,11.032,7.616,1.232,9.688,3.136,9.688,7.672s-3.976,7.56-9.128,7.56c-8.064,0-9.968-4.032-10.584-8.792h-4.7C-157.584-5.376-153.72.5-143.024.5Zm37.3-.5h4.872V-40.04h-4.872ZM-90.5,0h4.648V-34.328L-65.632,0h5.6V-40.04H-64.68v33.1l-19.488-33.1H-90.5Zm57.288.5c8.96,0,15.344-4.536,16.744-13.776H-21c-1.008,6.5-5.544,9.8-12.1,9.8-8.624,0-13.776-6.16-13.776-16.352v-.448c0-10.08,5.544-16.52,13.832-16.52,6.832,0,10.36,3.136,11.368,9.24h4.816c-.84-8.68-7.9-13.1-16.24-13.1-10.864,0-18.816,8.568-18.816,20.44v.448C-51.912-7.448-44.8.5-33.208.5ZM-7.9.28A3.573,3.573,0,0,0-4.312-3.3,3.573,3.573,0,0,0-7.9-6.888,3.573,3.573,0,0,0-11.48-3.3,3.573,3.573,0,0,0-7.9.28Z" transform="translate(1601 1149)"/>
  </g>
</svg>
